<svg width="960" height="960" viewBox="0 0 960 960" fill="none" xmlns="http://www.w3.org/2000/svg">
<g opacity="0.8">
<path d="M374.928 600.746L365.729 594.392L359.376 585.189L319.293 528.437L42.6481 869.166C17.4587 900.281 59.952 942.79 91.0554 917.591L431.659 640.845L374.928 600.746Z" fill="#C0272D"/>
<path d="M868.858 42.6509L528.254 319.398L584.985 359.496L594.185 365.851L600.537 375.054L640.621 431.806L917.265 91.0761C942.674 59.9613 899.961 17.4523 868.858 42.6509Z" fill="#C0272D"/>
<path d="M165.747 198.664L411.945 548.377L761.529 794.666C783.871 813.072 812.565 784.148 794.385 761.798L548.187 412.085L198.602 165.796C176.261 147.39 147.348 176.313 165.747 198.664Z" fill="#1D2B33"/>
</g>
</svg>
